<svg width="76" height="76" viewBox="0 0 76 76" fill="none" xmlns="http://www.w3.org/2000/svg">
<path fill-rule="evenodd" clip-rule="evenodd" d="M38 57C48.4934 57 57 48.4934 57 38C57 27.5066 48.4934 19 38 19C27.5066 19 19 27.5066 19 38C19 48.4934 27.5066 57 38 57ZM38 50.6667C44.9955 50.6667 50.6667 44.9955 50.6667 38C50.6667 31.0044 44.9955 25.3333 38 25.3333C31.0044 25.3333 25.3333 31.0044 25.3333 38C25.3333 44.9955 31.0044 50.6667 38 50.6667Z" fill="black"/>
<path d="M57 15.8335C55.251 15.8335 53.8333 17.2513 53.8333 19.0002C53.8333 20.749 55.251 22.1668 57 22.1668C58.7489 22.1668 60.1666 20.749 60.1666 19.0002C60.1666 17.2513 58.7489 15.8335 57 15.8335Z" fill="black"/>
<path fill-rule="evenodd" clip-rule="evenodd" d="M5.23756 13.5407C3.16669 17.605 3.16669 22.9255 3.16669 33.5665V42.4332C3.16669 53.0741 3.16669 58.3947 5.23756 62.4589C7.05915 66.034 9.96577 68.9407 13.5409 70.7622C17.6052 72.8332 22.9257 72.8332 33.5667 72.8332H42.4333C53.0743 72.8332 58.3949 72.8332 62.459 70.7622C66.0342 68.9407 68.9409 66.034 70.7624 62.4589C72.8334 58.3947 72.8334 53.0741 72.8334 42.4332V33.5665C72.8334 22.9255 72.8334 17.605 70.7624 13.5407C68.9409 9.96559 66.0342 7.05897 62.459 5.23738C58.3949 3.1665 53.0743 3.1665 42.4333 3.1665H33.5667C22.9257 3.1665 17.6052 3.1665 13.5409 5.23738C9.96577 7.05897 7.05915 9.96559 5.23756 13.5407ZM42.4333 9.49984H33.5667C28.1417 9.49984 24.4538 9.50478 21.6033 9.73765C18.8266 9.96451 17.4067 10.3757 16.4161 10.8804C14.0328 12.0948 12.095 14.0326 10.8806 16.416C10.3759 17.4065 9.9647 18.8264 9.73784 21.6031C9.50496 24.4536 9.50002 28.1415 9.50002 33.5665V42.4332C9.50002 47.8583 9.50496 51.5459 9.73784 54.3965C9.9647 57.1734 10.3759 58.5933 10.8806 59.5838C12.095 61.9671 14.0328 63.9047 16.4161 65.1192C17.4067 65.6239 18.8266 66.0353 21.6033 66.262C24.4538 66.4948 28.1417 66.4998 33.5667 66.4998H42.4333C47.8585 66.4998 51.5461 66.4948 54.3967 66.262C57.1736 66.0353 58.5935 65.6239 59.584 65.1192C61.9673 63.9047 63.9049 61.9671 65.1193 59.5838C65.6241 58.5933 66.0355 57.1734 66.2622 54.3965C66.4949 51.5459 66.5 47.8583 66.5 42.4332V33.5665C66.5 28.1415 66.4949 24.4536 66.2622 21.6031C66.0355 18.8264 65.6241 17.4065 65.1193 16.416C63.9049 14.0326 61.9673 12.0948 59.584 10.8804C58.5935 10.3757 57.1736 9.96451 54.3967 9.73765C51.5461 9.50478 47.8585 9.49984 42.4333 9.49984Z" fill="black"/>
</svg>
