<svg width="72" height="68" viewBox="0 0 72 68" fill="none" xmlns="http://www.w3.org/2000/svg">
<path d="M49.7016 43.1704L47.8986 44.9627C47.8986 44.9627 43.6133 49.2238 31.9164 37.5931C20.2196 25.9627 24.5048 21.7018 24.5048 21.7018L25.6401 20.5729C28.4371 17.7921 28.7007 13.3273 26.2604 10.0679L21.2691 3.40051C18.249 -0.633663 12.4132 -1.16657 8.95156 2.27536L2.73857 8.45309C1.02215 10.1598 -0.128059 12.3721 0.0114324 14.8264C0.368276 21.1051 3.20905 34.6144 19.0608 50.3761C35.8708 67.0906 51.6436 67.7548 58.0937 67.1535C60.1338 66.9635 61.9079 65.9244 63.3377 64.5026L68.9609 58.9119C72.7565 55.1376 71.6862 48.6673 66.8297 46.0275L59.2673 41.9164C56.0785 40.183 52.1938 40.692 49.7016 43.1704Z" fill="white"/>
</svg>
