<svg width="76" height="76" viewBox="0 0 76 76" fill="none" xmlns="http://www.w3.org/2000/svg">
<path fill-rule="evenodd" clip-rule="evenodd" d="M38 57C48.4934 57 57 48.4934 57 38C57 27.5066 48.4934 19 38 19C27.5066 19 19 27.5066 19 38C19 48.4934 27.5066 57 38 57ZM38 50.6667C44.9955 50.6667 50.6667 44.9955 50.6667 38C50.6667 31.0044 44.9955 25.3333 38 25.3333C31.0044 25.3333 25.3333 31.0044 25.3333 38C25.3333 44.9955 31.0044 50.6667 38 50.6667Z" fill="white"/>
<path d="M56.9999 15.8335C55.251 15.8335 53.8333 17.2513 53.8333 19.0002C53.8333 20.749 55.251 22.1668 56.9999 22.1668C58.7489 22.1668 60.1666 20.749 60.1666 19.0002C60.1666 17.2513 58.7489 15.8335 56.9999 15.8335Z" fill="white"/>
<path fill-rule="evenodd" clip-rule="evenodd" d="M5.23762 13.5407C3.16675 17.605 3.16675 22.9255 3.16675 33.5665V42.4332C3.16675 53.0741 3.16675 58.3948 5.23762 62.4589C7.05921 66.034 9.96583 68.9407 13.5409 70.7622C17.6053 72.8332 22.9258 72.8332 33.5667 72.8332H42.4334C53.0744 72.8332 58.395 72.8332 62.4591 70.7622C66.0343 68.9407 68.9409 66.034 70.7624 62.4589C72.8334 58.3948 72.8334 53.0741 72.8334 42.4332V33.5665C72.8334 22.9255 72.8334 17.605 70.7624 13.5407C68.9409 9.96559 66.0343 7.05897 62.4591 5.23738C58.395 3.1665 53.0744 3.1665 42.4334 3.1665H33.5667C22.9258 3.1665 17.6053 3.1665 13.5409 5.23738C9.96583 7.05897 7.05921 9.96559 5.23762 13.5407ZM42.4334 9.49984H33.5667C28.1417 9.49984 24.4539 9.50478 21.6033 9.73765C18.8267 9.96451 17.4067 10.3757 16.4162 10.8804C14.0328 12.0948 12.0951 14.0326 10.8807 16.416C10.3759 17.4065 9.96476 18.8264 9.7379 21.6031C9.50502 24.4536 9.50008 28.1415 9.50008 33.5665V42.4332C9.50008 47.8583 9.50502 51.5459 9.7379 54.3965C9.96476 57.1734 10.3759 58.5933 10.8807 59.5838C12.0951 61.9671 14.0328 63.9047 16.4162 65.1192C17.4067 65.6239 18.8267 66.0353 21.6033 66.262C24.4539 66.4948 28.1417 66.4998 33.5667 66.4998H42.4334C47.8585 66.4998 51.5461 66.4948 54.3968 66.262C57.1736 66.0353 58.5935 65.6239 59.5841 65.1192C61.9673 63.9047 63.905 61.9671 65.1194 59.5838C65.6242 58.5933 66.0355 57.1734 66.2623 54.3965C66.495 51.5459 66.5001 47.8583 66.5001 42.4332V33.5665C66.5001 28.1415 66.495 24.4536 66.2623 21.6031C66.0355 18.8264 65.6242 17.4065 65.1194 16.416C63.905 14.0326 61.9673 12.0948 59.5841 10.8804C58.5935 10.3757 57.1736 9.96451 54.3968 9.73765C51.5461 9.50478 47.8585 9.49984 42.4334 9.49984Z" fill="white"/>
</svg>
