<svg width="71" height="71" viewBox="0 0 71 71" fill="none" xmlns="http://www.w3.org/2000/svg">
<path d="M65.0133 0.00633811H6.05083C5.29086 -0.0292602 4.53128 0.0853534 3.81565 0.343684C3.10002 0.602015 2.44237 0.998939 1.88031 1.51171C1.31829 2.02453 0.862885 2.64318 0.540247 3.33218C0.21761 4.02122 0.0340083 4.76711 0 5.52717V64.6223C0.04452 66.2127 0.696331 67.7263 1.82156 68.8513C2.9468 69.9766 4.46013 70.6285 6.05083 70.6731H65.0133C66.5596 70.6042 68.0175 69.932 69.0745 68.8009C70.1314 67.6698 70.7029 66.1699 70.6667 64.6223V5.52717C70.6795 4.78738 70.5408 4.05284 70.2595 3.36853C69.9781 2.68425 69.5598 2.06464 69.0303 1.54767C68.5012 1.03074 67.8718 0.627411 67.181 0.362367C66.4903 0.0973226 65.7527 -0.0238277 65.0133 0.00633811ZM22.0833 58.9248H11.7925V27.434H22.0833V58.9248ZM17.1808 22.6638C16.4627 22.6889 15.7472 22.5651 15.0792 22.3004C14.4112 22.0357 13.8051 21.6356 13.2992 21.1255C12.7931 20.6153 12.3981 20.006 12.1388 19.3359C11.8795 18.6657 11.7616 17.9492 11.7925 17.2313C11.7607 16.5057 11.881 15.7814 12.1456 15.105C12.4102 14.4286 12.8133 13.8149 13.3289 13.3034C13.8446 12.7919 14.4615 12.3938 15.14 12.1347C15.8186 11.8756 16.5438 11.7612 17.2692 11.7988C17.9873 11.7738 18.7028 11.8976 19.3708 12.1623C20.0388 12.427 20.6449 12.827 21.1508 13.3372C21.6569 13.8474 22.0519 14.4567 22.3112 15.1268C22.5705 15.7969 22.6884 16.5135 22.6575 17.2313C22.6893 17.957 22.569 18.6812 22.3044 19.3577C22.0398 20.0341 21.6367 20.6478 21.1211 21.1593C20.6054 21.6708 19.9885 22.0689 19.31 22.328C18.6314 22.5871 17.9062 22.7015 17.1808 22.6638ZM58.9183 58.9248H48.5833V41.6998C48.5833 37.5923 47.1258 34.7656 43.46 34.7656C42.3214 34.7754 41.2132 35.1371 40.2884 35.8013C39.3631 36.4656 38.6661 37.3997 38.2925 38.4756C38.0054 39.2821 37.8853 40.1385 37.9392 40.9931V58.9248H27.7808V27.434H37.9392V31.8506C38.8424 30.1913 40.1864 28.8142 41.8232 27.8708C43.46 26.9278 45.3256 26.4556 47.2142 26.5063C53.8833 26.5063 58.9183 30.9231 58.9183 40.3306V58.9248Z" fill="white"/>
</svg>
