<svg width="76" height="76" viewBox="0 0 76 76" fill="none" xmlns="http://www.w3.org/2000/svg">
<path d="M53.5356 22.747C53.5507 22.747 53.5709 22.747 53.5911 22.747C54.1185 22.747 54.608 22.911 55.0092 23.1936L55.0016 23.1886C55.2943 23.4434 55.4911 23.8017 55.539 24.2054V24.213C55.5895 24.5209 55.6173 24.8741 55.6173 25.2349C55.6173 25.3989 55.6122 25.5604 55.5996 25.7219V25.6992C55.0319 31.6768 52.5692 46.1728 51.3177 52.8644C50.7878 55.698 49.7457 56.6467 48.7364 56.7376C46.5437 56.942 44.8784 55.2892 42.7538 53.8964C39.4282 51.7138 37.5483 50.3563 34.3211 48.2292C30.5892 45.7741 33.009 44.4191 35.1336 42.2138C35.6912 41.6335 45.3578 32.84 45.547 32.0426C45.5571 31.9947 45.5622 31.9417 45.5622 31.8862C45.5622 31.6894 45.489 31.5102 45.3704 31.374C45.2392 31.2882 45.0752 31.2402 44.9036 31.2402C44.79 31.2402 44.6815 31.2629 44.5806 31.3008L44.5857 31.2983C44.2526 31.374 38.9403 34.8846 28.6489 41.8303C27.526 42.7159 26.108 43.2761 24.5637 43.3417H24.5486C22.361 43.0768 20.3752 42.5898 18.4903 41.8959L18.677 41.9564C16.3102 41.1843 14.4304 40.7781 14.5919 39.471C14.6777 38.7915 15.6147 38.0959 17.4028 37.3843C28.4176 32.5851 35.7627 29.4218 39.4383 27.8944C43.4931 25.7421 48.1939 23.9708 53.1369 22.8227L53.5331 22.7445L53.5356 22.747ZM37.9117 0C16.9637 0.0504648 0 17.0445 0 38C0 58.9858 17.0117 76 38 76C58.9883 76 76 58.9883 76 38C76 17.0445 59.0363 0.0504648 38.0934 0H38.0883C38.0294 0 37.9706 0 37.9117 0Z" fill="white"/>
</svg>
