<svg width="60" height="80" viewBox="0 0 60 80" fill="none" xmlns="http://www.w3.org/2000/svg">
<mask id="mask0_0_59" style="mask-type:luminance" maskUnits="userSpaceOnUse" x="19" y="12" width="39" height="22">
<path d="M19.7037 12.4901H57.406V33.5012H19.7037V12.4901Z" fill="white"/>
</mask>
<g mask="url(#mask0_0_59)">
<path fill-rule="evenodd" clip-rule="evenodd" d="M31.9327 15.229H50.5053C52.8592 15.229 54.7866 17.2846 54.7866 19.7954C54.7866 22.3065 52.8595 24.3617 50.5053 24.3617C41.9547 24.3617 33.4041 24.3617 24.8531 24.3617V27.1006C33.4041 27.1006 41.9547 27.1006 50.5053 27.1006C54.273 27.1006 57.354 23.8142 57.354 19.7954C57.354 15.7765 54.2727 12.4901 50.5053 12.4901H25.8167C23.9533 12.7086 22.306 13.7336 21.1952 15.229C20.2692 16.4753 19.7151 18.0478 19.7151 19.7528C19.7151 24.3346 19.7151 28.9133 19.7151 33.4954H22.2828C22.2828 28.9133 22.2828 24.3343 22.2828 19.7528C22.2828 17.454 23.8954 15.5398 25.9753 15.229C27.5765 14.9917 30.2565 15.229 31.9327 15.229Z" fill="white"/>
</g>
<mask id="mask1_0_59" style="mask-type:luminance" maskUnits="userSpaceOnUse" x="2" y="24" width="49" height="49">
<path d="M2.59954 24.3358H50.5185V72.0593H2.59954V24.3358Z" fill="white"/>
</mask>
<g mask="url(#mask1_0_59)">
<path fill-rule="evenodd" clip-rule="evenodd" d="M5.27373 37.4216C6.2717 38.2556 7.76591 38.9448 9.04687 38.9448C20.566 38.9448 32.088 38.9448 43.6102 38.9448C43.7746 38.9448 43.9389 38.9537 44.1007 38.9722C46.2266 39.237 47.8883 41.1753 47.8883 43.508C47.8883 46.0222 45.9641 48.0744 43.61 48.0744H32.1282C31.4216 48.0744 30.8443 48.6932 30.8443 49.4438V64.7497C30.8443 67.2605 28.917 69.3164 26.5631 69.3164C24.2092 69.3164 22.2821 67.2608 22.2821 64.7497C22.2821 57.0599 22.2821 49.3698 22.2821 41.6833H19.7144C19.7144 49.3698 19.7144 57.0599 19.7144 64.7497C19.7144 68.7685 22.7954 72.055 26.5631 72.055C30.3307 72.055 33.4117 68.7682 33.4117 64.7497V50.8164H43.6097C47.3744 50.8164 50.4583 47.5269 50.4583 43.508C50.4583 41.1815 49.4225 39.0985 47.8186 37.7568C46.8203 36.9228 45.3261 36.2333 44.0454 36.2333C32.5263 36.2333 21.004 36.2333 9.48206 36.2333C9.31771 36.2333 9.15307 36.2241 8.98871 36.2025C6.86603 35.9417 5.20168 34.0028 5.20168 31.667C5.20168 29.1562 7.12876 27.1006 9.48264 27.1006C12.0385 27.1006 14.5917 27.1006 17.1476 27.1006V24.3617H9.48264C7.84664 24.3617 6.33536 24.9833 5.15538 26.0176C3.61776 27.359 2.63397 29.3963 2.63397 31.667C2.63397 33.9228 3.61198 36.0336 5.27373 37.4216Z" fill="white"/>
</g>
</svg>
