<svg width="63" height="83" viewBox="0 0 63 83" fill="none" xmlns="http://www.w3.org/2000/svg">
<mask id="mask0_1_29" style="mask-type:luminance" maskUnits="userSpaceOnUse" x="20" y="12" width="41" height="23">
<path d="M20.6805 12.8574H60.2521V34.4867H20.6805V12.8574Z" fill="white"/>
</mask>
<g mask="url(#mask0_1_29)">
<path fill-rule="evenodd" clip-rule="evenodd" d="M33.5157 15.6769H53.0092C55.4798 15.6769 57.5027 17.7929 57.5027 20.3776C57.5027 22.9626 55.4801 25.0783 53.0092 25.0783C44.0346 25.0783 35.06 25.0783 26.0852 25.0783V27.8977C35.06 27.8977 44.0346 27.8977 53.0092 27.8977C56.9637 27.8977 60.1974 24.5146 60.1974 20.3776C60.1974 16.2405 56.9634 12.8574 53.0092 12.8574H27.0965C25.1406 13.0824 23.4117 14.1375 22.2458 15.6769C21.274 16.9598 20.6924 18.5786 20.6924 20.3337C20.6924 25.0503 20.6924 29.7637 20.6924 34.4806H23.3874C23.3874 29.7637 23.3874 25.05 23.3874 20.3337C23.3874 17.9673 25.0799 15.9968 27.2629 15.6769C28.9436 15.4326 31.7564 15.6769 33.5157 15.6769Z" fill="black"/>
</g>
<mask id="mask1_1_29" style="mask-type:luminance" maskUnits="userSpaceOnUse" x="2" y="25" width="52" height="50">
<path d="M2.72839 25.0518H53.0232V74.1792H2.72839V25.0518Z" fill="white"/>
</mask>
<g mask="url(#mask1_1_29)">
<path fill-rule="evenodd" clip-rule="evenodd" d="M5.53516 38.5227C6.58262 39.3812 8.15092 40.0907 9.49539 40.0907C21.5856 40.0907 33.6789 40.0907 45.7724 40.0907C45.9449 40.0907 46.1174 40.0999 46.2872 40.1189C48.5185 40.3915 50.2626 42.3868 50.2626 44.7882C50.2626 47.3763 48.243 49.4889 45.7721 49.4889H33.7211C32.9795 49.4889 32.3736 50.1259 32.3736 50.8986V66.6548C32.3736 69.2394 30.3506 71.3558 27.8801 71.3558C25.4095 71.3558 23.3868 69.2397 23.3868 66.6548C23.3868 58.7387 23.3868 50.8223 23.3868 42.9098H20.6918C20.6918 50.8223 20.6918 58.7387 20.6918 66.6548C20.6918 70.7918 23.9256 74.1749 27.8801 74.1749C31.8345 74.1749 35.0683 70.7915 35.0683 66.6548V52.3115H45.7718C49.7232 52.3115 52.9601 48.9252 52.9601 44.7882C52.9601 42.3932 51.8728 40.2489 50.1894 38.8677C49.1417 38.0093 47.5734 37.2995 46.2292 37.2995C34.139 37.2995 22.0454 37.2995 9.95215 37.2995C9.77965 37.2995 9.60684 37.2899 9.43434 37.2677C7.20641 36.9992 5.45954 35.0033 5.45954 32.5988C5.45954 30.0141 7.48217 27.8981 9.95276 27.8981C12.6353 27.8981 15.3152 27.8981 17.9977 27.8981V25.0786H9.95276C8.23565 25.0786 6.64943 25.7185 5.41095 26.7832C3.7971 28.164 2.76453 30.2613 2.76453 32.5988C2.76453 34.921 3.79103 37.0939 5.53516 38.5227Z" fill="black"/>
</g>
</svg>
