<svg width="24" height="28" viewBox="0 0 24 28" fill="none" xmlns="http://www.w3.org/2000/svg">
<path d="M11.6196 0.786133V2.23742M7.2994 22.3133C10.1705 22.636 13.0686 22.636 15.9398 22.3133C15.9195 22.5925 15.8756 22.8698 15.8087 23.1421L15.6903 23.6236C15.3193 25.1322 14.1409 26.3063 12.6363 26.6662C11.9678 26.8261 11.2713 26.8261 10.6029 26.6662C9.09832 26.3063 7.91983 25.1322 7.54889 23.6236L7.43049 23.1421C7.36354 22.8698 7.31972 22.5925 7.2994 22.3133ZM2.99307 8.92209C3.79376 5.96697 6.0585 3.60749 8.95947 2.66713C10.7424 2.08918 12.6812 2.08823 14.4609 2.67601C17.3104 3.6171 19.4918 5.94401 20.2564 8.85819L21.0988 12.069L21.7737 15.1259C21.9817 16.0674 22.2645 17.0358 22.4136 17.9886C22.4395 18.1537 22.4529 18.3231 22.4529 18.4956C22.4529 20.0357 21.3731 21.3627 19.8708 21.6687L19.3399 21.7769C14.2449 22.8148 8.99432 22.8148 3.8993 21.7769L3.36833 21.6687C1.86604 21.3627 0.786255 20.0357 0.786255 18.4956C0.786255 18.3231 0.799679 18.1537 0.825535 17.9886C0.97466 17.0358 1.25752 16.0674 1.46543 15.1259L2.14042 12.069L2.99307 8.92209Z" stroke="white" stroke-width="1.57242" stroke-linecap="round"/>
</svg>
