<svg width="31" height="24" viewBox="0 0 31 24" fill="none" xmlns="http://www.w3.org/2000/svg">
<path d="M7.6307 9.31895C3.85062 9.31895 0.786255 12.3337 0.786255 16.0525C0.786255 19.7714 3.85062 22.7861 7.6307 22.7861C7.63522 22.7861 7.63973 22.7861 7.64425 22.7861H20.3361C20.338 22.7861 20.3399 22.7861 20.3418 22.7861C25.7419 22.7861 30.1196 18.4794 30.1196 13.1667C30.1196 7.85405 25.7419 3.54729 20.3418 3.54729C16.3482 3.54729 12.9137 5.90279 11.3956 9.27865M7.6307 9.31895C8.52276 9.31895 9.37497 9.48685 10.1564 9.79227C10.6292 9.97703 11.1819 9.75393 11.3956 9.27865M7.6307 9.31895C6.66874 9.31895 5.75313 9.51418 4.92258 9.86658C4.36701 8.95263 4.04551 7.8699 4.04551 6.7092C4.04551 3.43798 6.59915 0.786133 9.74922 0.786133C12.3199 0.786133 14.4933 2.55214 15.2059 4.97959C13.5344 5.99662 12.1976 7.49526 11.3956 9.27865" stroke="white" stroke-width="1.57242"/>
</svg>
