<svg width="28" height="27" viewBox="0 0 28 27" fill="none" xmlns="http://www.w3.org/2000/svg">
<path d="M1.2714 17.7438L2.02763 17.5654L1.2714 17.7438ZM1.29901 9.13545L2.05408 9.31869L1.29901 9.13545ZM26.1997 9.21533L25.4435 9.39372L26.1997 9.21533ZM26.1721 17.8237L25.417 17.6404L26.1721 17.8237ZM18.0873 25.6983L18.2589 26.456V26.456L18.0873 25.6983ZM9.30557 25.6701L9.48212 24.9134L9.30557 25.6701ZM9.38386 1.26088L9.55555 2.01866L9.38386 1.26088ZM18.1656 1.28905L18.3421 0.532393L18.1656 1.28905ZM1.2714 17.7438L2.02763 17.5654C1.38733 14.8512 1.39638 12.0288 2.05408 9.31869L1.29901 9.13545L0.54395 8.95221C-0.171399 11.8998 -0.181247 14.97 0.515178 17.9222L1.2714 17.7438ZM26.1997 9.21533L25.4435 9.39372C26.0838 12.108 26.0747 14.9304 25.417 17.6404L26.1721 17.8237L26.9272 18.0069C27.6425 15.0593 27.6524 11.9891 26.956 9.03693L26.1997 9.21533ZM18.0873 25.6983L17.9156 24.9405C15.1401 25.5693 12.2535 25.56 9.48212 24.9134L9.30557 25.6701L9.12903 26.4267C12.1294 27.1268 15.2541 27.1368 18.2589 26.456L18.0873 25.6983ZM9.38386 1.26088L9.55555 2.01866C12.331 1.38983 15.2176 1.39909 17.989 2.04571L18.1656 1.28905L18.3421 0.532393C15.3417 -0.167654 12.217 -0.177676 9.21218 0.503108L9.38386 1.26088ZM9.30557 25.6701L9.48212 24.9134C5.76681 24.0466 2.8838 21.1948 2.02763 17.5654L1.2714 17.7438L0.515178 17.9222C1.50994 22.139 4.85222 25.4289 9.12903 26.4267L9.30557 25.6701ZM18.0873 25.6983L18.2589 26.456C22.5421 25.4856 25.9054 22.2173 26.9272 18.0069L26.1721 17.8237L25.417 17.6404C24.5376 21.2642 21.6364 24.0975 17.9156 24.9405L18.0873 25.6983ZM18.1656 1.28905L17.989 2.04571C21.7043 2.91256 24.5873 5.76437 25.4435 9.39372L26.1997 9.21533L26.956 9.03693C25.9612 4.82012 22.6189 1.53025 18.3421 0.532393L18.1656 1.28905ZM9.38386 1.26088L9.21218 0.503108C4.92905 1.47351 1.56574 4.74187 0.54395 8.95221L1.29901 9.13545L2.05408 9.31869C2.93352 5.69491 5.83476 2.86166 9.55555 2.01866L9.38386 1.26088ZM16.6888 26.7034L17.4658 26.7059C17.4725 24.6071 17.479 23.1127 17.6382 21.9788C17.7941 20.8688 18.0827 20.2206 18.5711 19.7449L18.029 19.1883L17.4869 18.6317C16.6551 19.4418 16.2802 20.4748 16.0994 21.7627C15.9219 23.0267 15.9184 24.6469 15.9118 26.7009L16.6888 26.7034ZM25.7039 17.9227L25.7064 17.1458C23.6097 17.139 21.9606 17.1322 20.6738 17.2976C19.3663 17.4656 18.3165 17.8236 17.4869 18.6317L18.029 19.1883L18.5711 19.7449C19.0617 19.267 19.7312 18.9855 20.8719 18.8388C22.0335 18.6895 23.5617 18.6929 25.7014 18.6997L25.7039 17.9227Z" fill="white"/>
<path d="M9.42834 9.40137L13.7478 9.41522M9.41449 13.7208L16.6136 13.7439" stroke="white" stroke-width="1.55396" stroke-linecap="round"/>
</svg>
