<svg width="140" height="197" viewBox="0 0 140 197" fill="none" xmlns="http://www.w3.org/2000/svg">
<path d="M109.42 69.3198V39.3758C109.406 28.9369 105.248 18.9297 97.8585 11.5483C90.4689 4.16698 80.4505 0.0139639 70 0C48.2901 0 30.6238 17.6652 30.6238 39.3758V69.2887C12.1588 81.9121 0 103.129 0 127.078C0 165.597 31.4413 197 70 197C108.559 197 140 165.597 140 127.078C140 103.148 127.86 81.9462 109.42 69.3198ZM74.8051 137.146V159.341C74.808 159.59 74.7611 159.836 74.6671 160.066C74.5732 160.297 74.4341 160.506 74.258 160.681C74.0819 160.857 73.8723 160.995 73.6417 161.089C73.4112 161.182 73.1642 161.229 72.9154 161.226H67.0847C66.8358 161.229 66.5888 161.182 66.3583 161.089C66.1277 160.995 65.9182 160.857 65.7421 160.681C65.566 160.506 65.4269 160.297 65.3329 160.066C65.2389 159.836 65.192 159.59 65.1949 159.341V136.634C65.3255 132.306 60.393 133.119 60.393 126.178C60.393 123.632 61.4051 121.192 63.2068 119.392C65.0085 117.592 67.452 116.581 70 116.581C72.548 116.581 74.9915 117.592 76.7932 119.392C78.5949 121.192 79.6071 123.632 79.6071 126.178C79.6071 133.036 74.8051 132.048 74.8051 137.146ZM94.3207 61.4837C78.645 55.6656 61.3986 55.6656 45.7229 61.4837V39.3913C45.7229 32.954 48.2829 26.7804 52.8398 22.2285C57.3967 17.6767 63.5773 15.1194 70.0218 15.1194C76.4662 15.1194 82.6467 17.6767 87.2037 22.2285C91.7606 26.7804 94.3207 32.954 94.3207 39.3913V61.4837Z" fill="white"/>
</svg>
