<svg width="21" height="28" viewBox="0 0 21 28" fill="none" xmlns="http://www.w3.org/2000/svg">
<path d="M13.3565 18.6162C14.4069 18.3775 15.3739 17.9374 16.2123 17.3395L17.8688 23.8494C18.3662 25.804 16.2754 27.4283 14.4133 26.534L11.6215 25.1933C10.7102 24.7556 9.64009 24.7556 8.72881 25.1933L5.93699 26.534C4.07486 27.4283 1.98405 25.804 2.48144 23.8494L4.13802 17.3395C4.97637 17.9374 5.94335 18.3775 6.99381 18.6162M13.3565 18.6162C11.264 19.0916 9.0863 19.0916 6.99381 18.6162M13.3565 18.6162C16.2539 17.9579 18.5163 15.7668 19.1959 12.9606C19.6867 10.934 19.6867 8.82486 19.1959 6.79825C18.5163 3.99203 16.2539 1.80092 13.3565 1.14267C11.264 0.667288 9.0863 0.667288 6.99381 1.14267C4.09637 1.80092 1.83403 3.99203 1.15438 6.79824C0.663546 8.82486 0.663546 10.934 1.15438 12.9606C1.83403 15.7668 4.09637 17.9579 6.99381 18.6162" stroke="white" stroke-width="1.57242"/>
</svg>
