<svg width="260" height="260" viewBox="0 0 260 260" fill="none" xmlns="http://www.w3.org/2000/svg">
<path d="M193.174 251.478L181.923 260C179.922 257.387 132.211 196.436 62.3505 248.064L53.971 236.693C77.3441 219.437 98.6931 213.151 117.406 213.151C163.54 213.292 192.704 250.96 193.174 251.478Z" fill="white"/>
<path d="M28.4574 92.921C21.0471 87.092 12.4882 82.8961 3.34236 80.6085L1.21758e-05 94.3335C6.25366 95.885 12.1562 98.6092 17.3945 102.361C18.9772 103.45 20.5014 104.621 21.9609 105.869C36.5779 118.205 45.4988 136.286 49.1943 145.514C35.1224 152.189 21.8228 160.383 9.53286 169.951L18.1242 181.157C55.9967 152.13 94.9049 140.053 133.837 145.302C202.097 154.507 248.278 214.446 248.725 215.058L254.351 210.797L260 206.536C258.258 204.182 221.586 156.461 163.118 137.557C172.533 120.654 200.943 78.3953 256.563 60.1501L252.162 46.7311C207.891 61.4332 170.986 92.629 149.113 133.837C144.805 132.872 140.357 132.048 135.837 131.483C129.261 130.591 122.632 130.143 115.995 130.141C109.809 130.142 103.629 130.543 97.4941 131.342C97.9439 124.092 97.091 116.82 94.9756 109.871C109.339 107.233 123.084 101.94 135.508 94.2628C185.102 63.6579 197.036 5.17896 197.507 2.73057L183.643 -0.000130654C183.643 0.541343 172.298 54.9474 127.952 82.3977C116.117 89.6255 102.963 94.4271 89.2558 96.523C83.9384 87.2906 76.9551 79.1243 68.6601 72.4391C141.157 63.7049 151.89 3.13082 151.984 2.47164L138.05 0.117412C137.626 2.6129 126.658 61.3272 46.252 59.2084L11.6278 58.2669L43.1215 72.6983C55.1674 78.5811 65.6523 87.2286 73.7208 97.9355C58.4754 98.3267 43.2477 96.6397 28.4574 92.921ZM80.8999 111.613C83.3324 118.705 84.0897 126.263 83.1125 133.696C76.0266 135.326 69.0592 137.434 62.2578 140.005C57.9724 129.495 52.3643 119.575 45.5694 110.483C57.2689 112.158 69.1174 112.537 80.8999 111.613Z" fill="white"/>
<path d="M227.424 234.103L221.563 238.034L215.702 241.989C215.396 241.518 182.749 194.057 131.413 186.43C100.484 181.839 68.7547 192.503 37.0962 218.117L28.1987 207.123C57.6918 183.275 87.5614 171.269 117.243 171.269C122.758 171.262 128.266 171.671 133.719 172.493C191.105 181.109 225.964 231.937 227.424 234.103Z" fill="white"/>
</svg>
