<svg width="189" height="354" viewBox="0 0 189 354" fill="none" xmlns="http://www.w3.org/2000/svg">
<rect y="28.3342" width="189.407" height="325" rx="30" fill="#B5ED3D"/>
<g clip-path="url(#clip0_0_198)">
<mask id="mask0_0_198" style="mask-type:luminance" maskUnits="userSpaceOnUse" x="120" y="34" width="74" height="46">
<path d="M120.9 46.6006L185.976 34.0611L193.311 67.3011L128.234 79.8406L120.9 46.6006Z" fill="white"/>
</mask>
<g mask="url(#mask0_0_198)">
<path fill-rule="evenodd" clip-rule="evenodd" d="M142.963 46.8664L175.021 40.6893C179.084 39.9064 183.128 42.5173 184.005 46.4895C184.881 50.4621 182.272 54.3545 178.209 55.1374C163.45 57.9813 148.691 60.8252 133.931 63.6692L134.887 68.0021C149.647 65.1582 164.406 62.3143 179.165 59.4704C185.668 58.2173 189.839 51.9934 188.436 45.6356C187.033 39.2777 180.568 35.1033 174.065 36.3563L131.451 44.5676C128.31 45.5331 125.825 47.7025 124.43 50.4377C123.266 52.7173 122.859 55.3893 123.454 58.0866C125.053 65.3351 126.652 72.5787 128.251 79.8276L132.683 78.9736C131.084 71.7247 129.485 64.4806 127.886 57.2326C127.084 53.5959 129.199 50.0313 132.68 48.8478C135.361 47.9398 140.07 47.4239 142.963 46.8664Z" fill="black"/>
</g>
<mask id="mask1_0_198" style="mask-type:luminance" maskUnits="userSpaceOnUse" x="95" y="55" width="100" height="92">
<path d="M95.5115 71.0295L178.223 55.0921L194.882 130.591L112.17 146.529L95.5115 71.0295Z" fill="white"/>
</mask>
<g mask="url(#mask1_0_198)">
<path fill-rule="evenodd" clip-rule="evenodd" d="M104.695 90.8423C106.709 91.8297 109.529 92.4231 111.74 91.9971C131.622 88.1659 151.51 84.3338 171.398 80.5016C171.682 80.4469 171.969 80.4064 172.255 80.3819C176.016 80.0938 179.561 82.6075 180.376 86.2979C181.253 90.2754 178.648 94.1619 174.585 94.9449L154.766 98.7636C153.547 98.9987 152.766 100.17 153.028 101.357L158.371 125.571C159.248 129.543 156.639 133.437 152.576 134.22C148.513 135.003 144.469 132.392 143.592 128.419C140.908 116.254 138.224 104.088 135.54 91.9276L131.108 92.7816C133.792 104.942 136.476 117.108 139.16 129.273C140.563 135.631 147.028 139.805 153.532 138.552C160.035 137.299 164.206 131.075 162.803 124.717L157.939 102.675L175.541 99.2829C182.04 98.0307 186.214 91.801 184.812 85.4431C183.999 81.7625 181.484 78.8116 178.248 77.2225C176.233 76.2352 173.414 75.6414 171.203 76.0673C151.32 79.8985 131.432 83.7307 111.544 87.5628C111.261 87.6175 110.973 87.6576 110.682 87.6781C106.927 87.9715 103.377 85.4576 102.562 81.7624C101.686 77.7902 104.294 73.8974 108.357 73.1145C112.769 72.2644 117.176 71.4152 121.588 70.5652L120.631 66.2322L107.401 68.7815C104.577 69.3256 102.186 70.8117 100.51 72.8403C98.3243 75.4738 97.3374 79.0241 98.13 82.6164C98.9174 86.1852 101.342 89.1992 104.695 90.8423Z" fill="black"/>
</g>
</g>
<defs>
<clipPath id="clip0_0_198">
<rect width="105.469" height="129.606" fill="white" transform="matrix(0.981937 -0.189207 0.215465 0.976511 82.5297 33.3943)"/>
</clipPath>
</defs>
</svg>
