<svg width="89" height="86" viewBox="0 0 89 86" fill="none" xmlns="http://www.w3.org/2000/svg">
<path d="M88.7972 1.49984C88.7972 0.671412 88.1256 -0.000161105 87.2972 -0.00016081L73.7972 -0.000161653C72.9687 -0.000161653 72.2972 0.671411 72.2972 1.49984C72.2972 2.32827 72.9687 2.99984 73.7972 2.99984H85.7972V14.9998C85.7972 15.8283 86.4687 16.4998 87.2972 16.4998C88.1256 16.4998 88.7972 15.8283 88.7972 14.9998L88.7972 1.49984ZM67.4982 21.2988L68.5588 22.3595L88.3578 2.5605L87.2972 1.49984L86.2365 0.439178L66.4375 20.2382L67.4982 21.2988Z" fill="white"/>
<path d="M-3.70709e-05 84.1984C-3.72961e-05 85.0268 0.671536 85.6984 1.49996 85.6984L15 85.6984C15.8284 85.6984 16.5 85.0268 16.5 84.1984C16.5 83.37 15.8284 82.6984 15 82.6984L2.99996 82.6984L2.99996 70.6984C2.99996 69.87 2.32839 69.1984 1.49996 69.1984C0.671533 69.1984 -3.91216e-05 69.87 -3.90518e-05 70.6984L-3.70709e-05 84.1984ZM21.299 64.3994L20.2383 63.3388L0.439302 83.1377L1.49996 84.1984L2.56062 85.2591L22.3596 65.4601L21.299 64.3994Z" fill="white"/>
<path d="M-3.87398e-05 1.49984C-3.90348e-05 0.671412 0.671534 -0.000161105 1.49996 -0.00016081L15 -0.000161653C15.8284 -0.000161653 16.5 0.671411 16.5 1.49984C16.5 2.32827 15.8284 2.99984 15 2.99984H2.99996V14.9998C2.99996 15.8283 2.32839 16.4998 1.49996 16.4998C0.671533 16.4998 -3.95828e-05 15.8283 -3.95828e-05 14.9998L-3.87398e-05 1.49984ZM21.299 21.2988L20.2383 22.3595L0.439301 2.5605L1.49996 1.49984L2.56062 0.439178L22.3596 20.2382L21.299 21.2988Z" fill="white"/>
<path d="M88.7972 84.1984C88.7972 85.0268 88.1256 85.6984 87.2972 85.6984L73.7972 85.6984C72.9687 85.6984 72.2972 85.0268 72.2972 84.1984C72.2972 83.37 72.9687 82.6984 73.7972 82.6984L85.7972 82.6984L85.7972 70.6984C85.7972 69.87 86.4687 69.1984 87.2972 69.1984C88.1256 69.1984 88.7972 69.87 88.7972 70.6984L88.7972 84.1984ZM67.4982 64.3994L68.5588 63.3388L88.3578 83.1377L87.2972 84.1984L86.2365 85.2591L66.4375 65.4601L67.4982 64.3994Z" fill="white"/>
</svg>
